<?xml version="1.0" encoding="UTF-8"?>
<svg width="20px" height="20px" viewBox="0 0 20 20" version="1.1" xmlns="http://www.w3.org/2000/svg" xmlns:xlink="http://www.w3.org/1999/xlink">
    <!-- Generator: Sketch 53.2 (72643) - https://sketchapp.com -->
    <title>icon_speak</title>
    <desc>Created with Sketch.</desc>
    <g id="Page-1" stroke="none" stroke-width="1" fill="none" fill-rule="evenodd">
        <g id="02---Details-Light" transform="translate(-399.000000, -639.000000)" fill="#5A3CC8">
            <g id="Events" transform="translate(334.000000, 489.000000)">
                <g id="Group-5" transform="translate(65.000000, 50.000000)">
                    <g id="Group-4" transform="translate(0.000000, 95.000000)">
                        <path d="M1.74107143,11.6964286 C1.74107143,13.4226286 2.48511171,14.7023771 3.97321429,15.5357143 C3.94345143,15.5357143 3.92857143,15.5357143 3.92857143,15.5357143 L3.83928571,15.4910714 L3.75,15.4464286 C3.69047714,15.4464286 3.64583429,15.4464286 3.61607143,15.4464286 C2.842258,15.3869057 2.172622,15.0669686 1.60714286,14.4866057 C1.04166371,13.9062457 0.684524571,13.1994086 0.535714286,12.3660714 C0.178569657,12.3660714 0,12.1279771 0,11.6517857 C0,11.2351171 0.163688829,10.9970229 0.491071429,10.9375 C0.639881714,9.98511429 1.05654429,9.18899143 1.74107143,8.54910857 C2.42559857,7.90922286 3.21428,7.58928571 4.10714286,7.58928571 L4.46428571,7.58928571 C3.66071143,7.91666857 3.00595429,8.45981714 2.5,9.21874857 C1.99404514,9.97768286 1.74107143,10.8035657 1.74107143,11.6964286 Z M19.3303571,7.63392857 C19.7767886,8.76488571 20,10.0743971 20,11.5625 C20,13.0803657 19.7767886,14.3898743 19.3303571,15.4910714 L19.1964286,15.8928571 C18.9285714,16.4880971 18.5714314,16.9940457 18.125,17.4107143 C17.55952,17.9761943 17.0535743,18.2738086 16.6071429,18.3035714 L16.4732143,18.3035714 C16.1755943,18.3035714 15.8482171,18.2291686 15.4910714,18.0803571 L15.0446429,17.8571429 C14.4791629,17.6190457 13.64584,17.3511914 12.5446429,17.0535714 C11.4434457,16.7559514 10.56548,16.5922629 9.91071429,16.5625 C9.61309429,17.15774 9.43452286,17.6041657 9.375,17.9017857 C9.19642857,18.70536 9.09226286,19.6130914 9.0625,20.625 C9.03273714,21.6666714 9.07738,22.8868977 9.19642857,24.2857143 C9.19642857,24.3154763 9.20386857,24.3675591 9.21874857,24.4419643 C9.23363143,24.5163694 9.24107143,24.5684523 9.24107143,24.5982143 C9.24107143,24.8660728 9.10714286,25 8.83928571,25 L5.40178571,25 C5.13392857,25 5,24.9107152 5,24.7321429 L5,24.4196429 C5.02976286,23.8244017 5.08184571,23.199408 5.15625143,22.5446429 C5.23065429,21.8898771 5.31994,21.3095257 5.42410857,20.8035714 C5.52827429,20.2976171 5.63244,19.8363114 5.73660571,19.4196429 C5.84077429,19.0029743 5.9375,18.6607143 6.02678571,18.3928571 L6.16071429,17.9464286 C6.16071429,17.9166657 6.20535714,17.7455371 6.29464286,17.4330343 C6.38392857,17.1205343 6.44345143,16.84524 6.47321429,16.6071429 C6.50297714,16.4583314 6.41369143,16.3318457 6.20535714,16.22768 C5.99702286,16.1235114 5.72916857,16.0119057 5.40178571,15.8928571 C5.07440286,15.7738086 4.83631143,15.6547629 4.6875,15.5357143 C3.28868286,14.7023771 2.58928571,13.4226286 2.58928571,11.6964286 C2.58928571,10.8035657 2.83481886,9.97768286 3.32589143,9.21874857 C3.81696571,8.45981714 4.4494,7.91666857 5.22321429,7.58928571 L7.09821429,7.58928571 L7.94642857,7.58928571 C10.5059657,7.47023714 12.9315371,6.72619714 15.2232143,5.35714286 C15.2529771,5.35714286 15.2827371,5.34226286 15.3125,5.3125 C15.3422629,5.28273714 15.3720229,5.26785714 15.4017857,5.26785714 C15.7589314,5.08928571 16.1160686,5 16.4732143,5 C17.0386943,5 17.5892829,5.23809429 18.125,5.71428571 C18.6011914,6.19047714 18.9583314,6.71130571 19.1964286,7.27678571 C19.1964286,7.30654857 19.2113086,7.36607143 19.2410714,7.45535714 C19.2708343,7.54464286 19.3005943,7.60416571 19.3303571,7.63392857 Z M18.3035714,15.5357143 C18.7500029,14.4345171 18.9732143,13.1101257 18.9732143,11.5625 C18.9732143,10.0446343 18.7500029,8.73512571 18.3035714,7.63392857 C17.9166657,6.77082857 17.47024,6.33928571 16.9642857,6.33928571 C16.4880943,6.33928571 16.0565486,6.77082857 15.6696429,7.63392857 C15.2232114,8.73512571 15,10.0446343 15,11.5625 C15,13.1101257 15.2232114,14.4345171 15.6696429,15.5357143 C16.0863114,16.5178629 16.5178543,17.0089286 16.9642857,17.0089286 C17.4107171,17.0089286 17.85714,16.5178629 18.3035714,15.5357143 Z" id="icon_speak"></path>
                    </g>
                </g>
            </g>
        </g>
    </g>
</svg>