<?xml version="1.0" encoding="UTF-8"?>
<svg width="20px" height="20px" viewBox="0 0 20 20" version="1.1" xmlns="http://www.w3.org/2000/svg" xmlns:xlink="http://www.w3.org/1999/xlink">
    <!-- Generator: Sketch 53.2 (72643) - https://sketchapp.com -->
    <title>icon_moon</title>
    <desc>Created with Sketch.</desc>
    <g id="Page-1" stroke="none" stroke-width="1" fill="none" fill-rule="evenodd">
        <g id="03---Home-Dark" transform="translate(-1285.000000, -57.000000)" fill="#FFFFFF">
            <path d="M1291.99229,57 C1291.61525,58.0796967 1291.42674,59.1765141 1291.42674,60.2904884 C1291.42674,63.1354036 1292.4293,65.560401 1294.43445,67.5655527 C1296.4396,69.5707044 1298.8646,70.5732648 1301.70951,70.5732648 C1302.82348,70.5732648 1303.9203,70.3847481 1305,70.0077121 C1304.31448,72.0642776 1303.08056,73.7437815 1301.2982,75.0462725 C1299.51584,76.348764 1297.51072,77 1295.28278,77 C1292.43786,77 1290.01286,75.9974393 1288.00771,73.9922879 C1286.00256,71.9871362 1285,69.5621388 1285,66.7172237 C1285,64.4892776 1285.65124,62.4841568 1286.95373,60.7017995 C1288.25622,58.9194422 1289.93572,57.6855219 1291.99229,57 Z" id="icon_moon"></path>
        </g>
    </g>
</svg>