<?xml version="1.0" encoding="UTF-8"?>
<svg width="30px" height="30px" viewBox="0 0 30 30" version="1.1" xmlns="http://www.w3.org/2000/svg" xmlns:xlink="http://www.w3.org/1999/xlink">
    <!-- Generator: Sketch 53.2 (72643) - https://sketchapp.com -->
    <title>icon_speak</title>
    <desc>Created with Sketch.</desc>
    <g id="Page-1" stroke="none" stroke-width="1" fill="none" fill-rule="evenodd">
        <g id="02---Details-Light" transform="translate(-389.000000, -1097.000000)" fill="#5A3CC8">
            <g id="Events" transform="translate(334.000000, 489.000000)">
                <g id="Group-4" transform="translate(55.000000, 608.000000)">
                    <path d="M2.61160714,10.0446429 C2.61160714,12.6339429 3.72766757,14.5535657 5.95982143,15.8035714 C5.91517714,15.8035714 5.89285714,15.8035714 5.89285714,15.8035714 L5.75892857,15.7366071 L5.625,15.6696429 C5.53571571,15.6696429 5.46875143,15.6696429 5.42410714,15.6696429 C4.263387,15.5803586 3.258933,15.1004529 2.41071429,14.2299086 C1.56249557,13.3593686 1.02678686,12.2991129 0.803571429,11.0491071 C0.267854486,11.0491071 0,10.6919657 0,9.97767857 C0,9.35267571 0.245533243,8.99553429 0.736607143,8.90625 C0.959822571,7.47767143 1.58481643,6.28348714 2.61160714,5.32366286 C3.63839786,4.36383429 4.82142,3.88392857 6.16071429,3.88392857 L6.69642857,3.88392857 C5.49106714,4.37500286 4.50893143,5.18972571 3.75,6.32812286 C2.99106771,7.46652429 2.61160714,8.70534857 2.61160714,10.0446429 Z M28.9955357,3.95089286 C29.6651829,5.64732857 30,7.61159571 30,9.84375 C30,12.1205486 29.6651829,14.0848114 28.9955357,15.7366071 L28.7946429,16.3392857 C28.3928571,17.2321457 27.8571471,17.9910686 27.1875,18.6160714 C26.33928,19.4642914 25.5803614,19.9107129 24.9107143,19.9553571 L24.7098214,19.9553571 C24.2633914,19.9553571 23.7723257,19.8437529 23.2366071,19.6205357 L22.5669643,19.2857143 C21.7187443,18.9285686 20.46876,18.5267871 18.8169643,18.0803571 C17.1651686,17.6339271 15.84822,17.3883943 14.8660714,17.34375 C14.4196414,18.23661 14.1517843,18.9062486 14.0625,19.3526786 C13.7946429,20.55804 13.6383943,21.9196371 13.59375,23.4375 C13.5491057,25.0000071 13.61607,26.8303466 13.7946429,28.9285714 C13.7946429,28.9732144 13.8058029,29.0513387 13.8281229,29.1629464 C13.8504471,29.2745541 13.8616071,29.3526784 13.8616071,29.3973214 C13.8616071,29.7991092 13.6607143,30 13.2589286,30 L8.10267857,30 C7.70089286,30 7.5,29.8660728 7.5,29.5982143 L7.5,29.1294643 C7.54464429,28.2366026 7.62276857,27.299112 7.73437714,26.3169643 C7.84598143,25.3348157 7.97991,24.4642886 8.13616286,23.7053571 C8.29241143,22.9464257 8.44866,22.2544671 8.60490857,21.6294643 C8.76116143,21.0044614 8.90625,20.4910714 9.04017857,20.0892857 L9.24107143,19.4196429 C9.24107143,19.3749986 9.30803571,19.1183057 9.44196429,18.6495514 C9.57589286,18.1808014 9.66517714,17.76786 9.70982143,17.4107143 C9.75446571,17.1874971 9.62053714,16.9977686 9.30803571,16.84152 C8.99553429,16.6852671 8.59375286,16.5178586 8.10267857,16.3392857 C7.61160429,16.1607129 7.25446714,15.9821443 7.03125,15.8035714 C4.93302429,14.5535657 3.88392857,12.6339429 3.88392857,10.0446429 C3.88392857,8.70534857 4.25222829,7.46652429 4.98883714,6.32812286 C5.72544857,5.18972571 6.6741,4.37500286 7.83482143,3.88392857 L10.6473214,3.88392857 L11.9196429,3.88392857 C15.7589486,3.70535571 19.3973057,2.58929571 22.8348214,0.535714286 C22.8794657,0.535714286 22.9241057,0.513394286 22.96875,0.46875 C23.0133943,0.424105714 23.0580343,0.401785714 23.1026786,0.401785714 C23.6383971,0.133928571 24.1741029,0 24.7098214,0 C25.5580414,0 26.3839243,0.357141429 27.1875,1.07142857 C27.9017871,1.78571571 28.4374971,2.56695857 28.7946429,3.41517857 C28.7946429,3.45982286 28.8169629,3.54910714 28.8616071,3.68303571 C28.9062514,3.81696429 28.9508914,3.90624857 28.9955357,3.95089286 Z M27.4553571,15.8035714 C28.1250043,14.1517757 28.4598214,12.1651886 28.4598214,9.84375 C28.4598214,7.56695143 28.1250043,5.60268857 27.4553571,3.95089286 C26.8749986,2.65624286 26.20536,2.00892857 25.4464286,2.00892857 C24.7321414,2.00892857 24.0848229,2.65624286 23.5044643,3.95089286 C22.8348171,5.60268857 22.5,7.56695143 22.5,9.84375 C22.5,12.1651886 22.8348171,14.1517757 23.5044643,15.8035714 C24.1294671,17.2767943 24.7767814,18.0133929 25.4464286,18.0133929 C26.1160757,18.0133929 26.78571,17.2767943 27.4553571,15.8035714 Z" id="icon_speak"></path>
                </g>
            </g>
        </g>
    </g>
</svg>