<?xml version="1.0" encoding="UTF-8"?>
<svg width="30px" height="30px" viewBox="0 0 30 30" version="1.1" xmlns="http://www.w3.org/2000/svg" xmlns:xlink="http://www.w3.org/1999/xlink">
    <!-- Generator: Sketch 53.2 (72643) - https://sketchapp.com -->
    <title>icon_moon</title>
    <desc>Created with Sketch.</desc>
    <g id="Page-1" stroke="none" stroke-width="1" fill="none" fill-rule="evenodd">
        <g id="03---Home-Dark" transform="translate(-1275.000000, -52.000000)" fill="#FFFFFF">
            <path d="M1285.48843,52 C1284.92288,53.619545 1284.6401,55.2647712 1284.6401,56.9357326 C1284.6401,61.2031054 1286.14394,64.8406015 1289.15167,67.848329 C1292.1594,70.8560566 1295.79689,72.3598972 1300.06427,72.3598972 C1301.73522,72.3598972 1303.38046,72.0771221 1305,71.5115681 C1303.97172,74.5964165 1302.12084,77.1156722 1299.4473,79.0694087 C1296.77376,81.023146 1293.76608,82 1290.42416,82 C1286.15679,82 1282.5193,80.496159 1279.51157,77.4884319 C1276.50384,74.4807044 1275,70.8432082 1275,66.5758355 C1275,63.2339165 1275.97685,60.2262352 1277.93059,57.5526992 C1279.88433,54.8791632 1282.40358,53.0282828 1285.48843,52 Z" id="icon_moon"></path>
        </g>
    </g>
</svg>