<?xml version="1.0" encoding="UTF-8"?>
<svg width="30px" height="40px" viewBox="0 0 30 40" version="1.1" xmlns="http://www.w3.org/2000/svg" xmlns:xlink="http://www.w3.org/1999/xlink">
    <!-- Generator: Sketch 53.2 (72643) - https://sketchapp.com -->
    <title>icon_place</title>
    <desc>Created with Sketch.</desc>
    <g id="Page-1" stroke="none" stroke-width="1" fill="none" fill-rule="evenodd" fill-opacity="0.5">
        <g id="01---Home-Light" transform="translate(-385.000000, -434.000000)" fill="#333333">
            <g id="Header">
                <g id="Events" transform="translate(335.000000, 228.000000)">
                    <g id="Group-2" transform="translate(50.000000, 206.000000)">
                        <path d="M1.18644068,20.7063765 C0.395476285,18.8508096 0,16.9179488 0,14.9077455 C0,12.8975476 0.395476285,10.9646868 1.18644068,9.10911997 C1.90678346,7.35194779 2.97315688,5.76349 4.38559349,4.34369803 C5.75565559,2.98013699 7.34462373,1.92584879 9.15254237,1.18081185 C10.9887078,0.393600351 12.9307824,0 14.9788149,0 C17.0692176,0 19.0183539,0.393600351 20.8262725,1.18081185 C22.6200678,1.92584879 24.2090305,2.98013699 25.5932203,4.34369803 C27.0056569,5.74943362 28.0790942,7.3378914 28.8135593,9.10911997 C29.6045234,10.9646868 30,12.8975476 30,14.9077455 C30,16.9179488 29.6045234,18.8508096 28.8135593,20.7063765 C28.3050847,21.8450246 27.7824868,22.7868509 27.2457654,23.5318933 L17.3305058,38.5239852 C16.6807864,39.508 15.9039566,40 15,40 C14.0960434,40 13.3121519,39.508 12.6483037,38.5239852 L2.75423729,23.5318933 C2.10451634,22.6322199 1.58192271,21.6903936 1.18644068,20.7063765 Z M9.42796475,14.9077455 C9.42796475,16.4540558 9.9646861,17.7613697 11.0381342,18.8297304 C12.1398346,19.926204 13.4533803,20.47443 14.9788149,20.47443 C16.5466197,20.47443 17.8672271,19.926204 18.9406807,18.8297304 C20.0282522,17.7754314 20.5720353,16.4681121 20.5720353,14.9077455 C20.5720353,13.3754971 20.0282522,12.0681832 18.9406807,10.985766 C17.8672271,9.88929248 16.5466197,9.34106111 14.9788149,9.34106111 C13.4533803,9.34106111 12.1398346,9.88929248 11.0381342,10.985766 C9.9646861,12.0822396 9.42796475,13.3895535 9.42796475,14.9077455 Z" id="icon_place"></path>
                    </g>
                </g>
            </g>
        </g>
    </g>
</svg>