<?xml version="1.0" encoding="UTF-8"?>
<svg width="20px" height="20px" viewBox="0 0 20 20" version="1.1" xmlns="http://www.w3.org/2000/svg" xmlns:xlink="http://www.w3.org/1999/xlink">
    <!-- Generator: Sketch 53.2 (72643) - https://sketchapp.com -->
    <title>icon_calendar_dark</title>
    <desc>Created with Sketch.</desc>
    <g id="Page-1" stroke="none" stroke-width="1" fill="none" fill-rule="evenodd" fill-opacity="0.6">
        <g id="03---Home-Dark" transform="translate(-395.000000, -372.000000)" fill="#EEECEC">
            <g id="Header">
                <g id="Events" transform="translate(335.000000, 228.000000)">
                    <g id="Group" transform="translate(60.000000, 142.000000)">
                        <path d="M15.8333333,12.8333333 L15.8333333,17.8333333 L10.8333333,17.8333333 L10.8333333,12.8333333 L15.8333333,12.8333333 Z M14.1666667,2 L16.6666667,2 L16.6666667,3.66666667 L17.9166667,3.66666667 C18.4722267,3.66666667 18.95833,3.87499667 19.375,4.29166667 C19.79167,4.70833667 20,5.19444333 20,5.75 L20,19.9166667 C20,20.472225 19.79167,20.9583313 19.375,21.375 C18.95833,21.7916687 18.4722267,22 17.9166667,22 L2.08333333,22 C1.527775,22 1.04166867,21.7916687 0.625,21.375 C0.208331267,20.9583313 0,20.472225 0,19.9166667 L0,5.75 C0,5.19444333 0.208331267,4.70833667 0.625,4.29166667 C1.04166867,3.87499667 1.527775,3.66666667 2.08333333,3.66666667 L3.33333333,3.66666667 L3.33333333,2 L5.83333333,2 L5.83333333,3.66666667 L14.1666667,3.66666667 L14.1666667,2 Z M17.9166667,19.9166667 L17.9166667,8.875 L2.08333333,8.875 L2.08333333,19.9166667 L17.9166667,19.9166667 Z" id="icon_calendar_dark"></path>
                    </g>
                </g>
            </g>
        </g>
    </g>
</svg>