<?xml version="1.0" encoding="UTF-8"?>
<svg width="20px" height="27px" viewBox="0 0 20 27" version="1.1" xmlns="http://www.w3.org/2000/svg" xmlns:xlink="http://www.w3.org/1999/xlink">
    <!-- Generator: Sketch 53.2 (72643) - https://sketchapp.com -->
    <title>icon_place_dark</title>
    <desc>Created with Sketch.</desc>
    <g id="Page-1" stroke="none" stroke-width="1" fill="none" fill-rule="evenodd" fill-opacity="0.6">
        <g id="03---Home-Dark" transform="translate(-395.000000, -441.000000)" fill="#EEECEC">
            <g id="Header">
                <g id="Events" transform="translate(335.000000, 228.000000)">
                    <g id="Group-2" transform="translate(60.000000, 213.000000)">
                        <path d="M0.790960452,13.9768041 C0.263650856,12.7242965 0,11.4196155 0,10.0627282 C0,8.70584465 0.263650856,7.40116362 0.790960452,6.14865598 C1.27118897,4.96256476 1.98210459,3.89035575 2.92372899,2.93199617 C3.83710373,2.01159247 4.89641582,1.29994794 6.10169492,0.797047997 C7.3258052,0.265680237 8.62052158,0 9.98587661,0 C11.3794784,0 12.6789026,0.265680237 13.8841817,0.797047997 C15.0800452,1.29994794 16.1393537,2.01159247 17.0621469,2.93199617 C18.0037713,3.88086769 18.7193962,4.9530767 19.2090395,6.14865598 C19.7363489,7.40116362 20,8.70584465 20,10.0627282 C20,11.4196155 19.7363489,12.7242965 19.2090395,13.9768041 C18.8700565,14.7453916 18.5216579,15.3811244 18.1638436,15.8840279 L11.5536705,26.00369 C11.1205243,26.6679 10.6026377,27 10,27 C9.39736226,27 8.87476791,26.6679 8.43220249,26.00369 L1.83615819,15.8840279 C1.40301089,15.2767484 1.05461514,14.6410157 0.790960452,13.9768041 Z M6.28530983,10.0627282 C6.28530983,11.1064876 6.64312407,11.9889245 7.35875616,12.710068 C8.09322305,13.4501877 8.96892023,13.8202402 9.98587661,13.8202402 C11.0310798,13.8202402 11.9114847,13.4501877 12.6271205,12.710068 C13.3521681,11.9984162 13.7146902,11.1159757 13.7146902,10.0627282 C13.7146902,9.02846053 13.3521681,8.14602365 12.6271205,7.41539206 C11.9114847,6.67527242 11.0310798,6.30521625 9.98587661,6.30521625 C8.96892023,6.30521625 8.09322305,6.67527242 7.35875616,7.41539206 C6.64312407,8.15551171 6.28530983,9.03794859 6.28530983,10.0627282 Z" id="icon_place_dark"></path>
                    </g>
                </g>
            </g>
        </g>
    </g>
</svg>