<?xml version="1.0" encoding="UTF-8"?>
<svg width="30px" height="30px" viewBox="0 0 30 30" version="1.1" xmlns="http://www.w3.org/2000/svg" xmlns:xlink="http://www.w3.org/1999/xlink">
    <!-- Generator: Sketch 53.2 (72643) - https://sketchapp.com -->
    <title>icon_sun</title>
    <desc>Created with Sketch.</desc>
    <g id="Page-1" stroke="none" stroke-width="1" fill="none" fill-rule="evenodd">
        <g id="01---Home-Light" transform="translate(-1275.000000, -52.000000)" fill="#FFFFFF">
            <path d="M1288.65,52.5625 C1289.025,52.1874962 1289.475,52 1290,52 C1290.525,52 1290.96875,52.1812487 1291.33125,52.54375 C1291.69375,52.9062512 1291.875,53.3499962 1291.875,53.875 C1291.875,54.4000037 1291.69375,54.8437487 1291.33125,55.20625 C1290.96875,55.5687512 1290.525,55.75 1290,55.75 C1289.475,55.75 1289.03125,55.5687512 1288.66875,55.20625 C1288.30625,54.8437487 1288.125,54.4000037 1288.125,53.875 C1288.125,53.3499962 1288.3,52.9125025 1288.65,52.5625 Z M1279.275,56.3125 C1279.65,55.9374962 1280.1,55.75 1280.625,55.75 C1281.15,55.75 1281.59375,55.9312487 1281.95625,56.29375 C1282.31875,56.6562512 1282.5,57.0999962 1282.5,57.625 C1282.5,58.1500037 1282.31875,58.5937487 1281.95625,58.95625 C1281.59375,59.3187512 1281.15,59.5 1280.625,59.5 C1280.1,59.5 1279.65625,59.3187512 1279.29375,58.95625 C1278.93125,58.5937487 1278.75,58.1500037 1278.75,57.625 C1278.75,57.0999962 1278.925,56.6625025 1279.275,56.3125 Z M1298.025,56.3125 C1298.4,55.9374962 1298.85,55.75 1299.375,55.75 C1299.9,55.75 1300.34375,55.9312487 1300.70625,56.29375 C1301.06875,56.6562512 1301.25,57.0999962 1301.25,57.625 C1301.25,58.1500037 1301.06875,58.5937487 1300.70625,58.95625 C1300.34375,59.3187512 1299.9,59.5 1299.375,59.5 C1298.85,59.5 1298.40625,59.3187512 1298.04375,58.95625 C1297.68125,58.5937487 1297.5,58.1500037 1297.5,57.625 C1297.5,57.0999962 1297.675,56.6625025 1298.025,56.3125 Z M1284.7125,61.7125 C1286.18751,60.2374937 1287.94999,59.5 1290,59.5 C1292.05001,59.5 1293.81249,60.2374937 1295.2875,61.7125 C1296.76251,63.1875062 1297.5,64.9499912 1297.5,67 C1297.5,69.0500088 1296.76251,70.8124938 1295.2875,72.2875 C1293.81249,73.7625063 1292.05001,74.5 1290,74.5 C1287.94999,74.5 1286.18751,73.7625063 1284.7125,72.2875 C1283.23749,70.8124938 1282.5,69.0500088 1282.5,67 C1282.5,64.9499912 1283.23749,63.1875062 1284.7125,61.7125 Z M1275.525,65.6875 C1275.9,65.3124962 1276.35,65.125 1276.875,65.125 C1277.4,65.125 1277.84375,65.3062487 1278.20625,65.66875 C1278.56875,66.0312512 1278.75,66.4749963 1278.75,67 C1278.75,67.5250037 1278.56875,67.9687488 1278.20625,68.33125 C1277.84375,68.6937512 1277.4,68.875 1276.875,68.875 C1276.35,68.875 1275.90625,68.6937512 1275.54375,68.33125 C1275.18125,67.9687488 1275,67.5250037 1275,67 C1275,66.4749963 1275.175,66.0375025 1275.525,65.6875 Z M1301.775,65.6875 C1302.15,65.3124962 1302.6,65.125 1303.125,65.125 C1303.65,65.125 1304.09375,65.3062487 1304.45625,65.66875 C1304.81875,66.0312512 1305,66.4749963 1305,67 C1305,67.5250037 1304.81875,67.9687488 1304.45625,68.33125 C1304.09375,68.6937512 1303.65,68.875 1303.125,68.875 C1302.6,68.875 1302.15625,68.6937512 1301.79375,68.33125 C1301.43125,67.9687488 1301.25,67.5250037 1301.25,67 C1301.25,66.4749963 1301.425,66.0375025 1301.775,65.6875 Z M1279.275,75.0625 C1279.65,74.6874962 1280.1,74.5 1280.625,74.5 C1281.15,74.5 1281.59375,74.6812487 1281.95625,75.04375 C1282.31875,75.4062512 1282.5,75.8499963 1282.5,76.375 C1282.5,76.9000037 1282.31875,77.3437488 1281.95625,77.70625 C1281.59375,78.0687513 1281.15,78.25 1280.625,78.25 C1280.1,78.25 1279.65625,78.0687513 1279.29375,77.70625 C1278.93125,77.3437488 1278.75,76.9000037 1278.75,76.375 C1278.75,75.8499963 1278.925,75.4125025 1279.275,75.0625 Z M1298.025,75.0625 C1298.4,74.6874962 1298.85,74.5 1299.375,74.5 C1299.9,74.5 1300.34375,74.6812487 1300.70625,75.04375 C1301.06875,75.4062512 1301.25,75.8499963 1301.25,76.375 C1301.25,76.9000037 1301.06875,77.3437488 1300.70625,77.70625 C1300.34375,78.0687513 1299.9,78.25 1299.375,78.25 C1298.85,78.25 1298.40625,78.0687513 1298.04375,77.70625 C1297.68125,77.3437488 1297.5,76.9000037 1297.5,76.375 C1297.5,75.8499963 1297.675,75.4125025 1298.025,75.0625 Z M1288.65,78.8125 C1289.025,78.4374981 1289.475,78.25 1290,78.25 C1290.525,78.25 1290.96875,78.431248 1291.33125,78.79375 C1291.69375,79.1562516 1291.875,79.5999974 1291.875,80.125 C1291.875,80.6500026 1291.69375,81.093748 1291.33125,81.45625 C1290.96875,81.8187518 1290.525,82 1290,82 C1289.475,82 1289.03125,81.8187518 1288.66875,81.45625 C1288.30625,81.093748 1288.125,80.6500026 1288.125,80.125 C1288.125,79.5999974 1288.3,79.1625018 1288.65,78.8125 Z" id="icon_sun"></path>
        </g>
    </g>
</svg>