<?xml version="1.0" encoding="UTF-8"?>
<svg width="20px" height="20px" viewBox="0 0 20 20" version="1.1" xmlns="http://www.w3.org/2000/svg" xmlns:xlink="http://www.w3.org/1999/xlink">
    <!-- Generator: Sketch 53.2 (72643) - https://sketchapp.com -->
    <title>icon_sun</title>
    <desc>Created with Sketch.</desc>
    <g id="Page-1" stroke="none" stroke-width="1" fill="none" fill-rule="evenodd">
        <g id="01---Home-Light" transform="translate(-1285.000000, -57.000000)" fill="#FFFFFF">
            <path d="M1294.1,57.375 C1294.35,57.1249975 1294.65,57 1295,57 C1295.35,57 1295.64583,57.1208325 1295.8875,57.3625 C1296.12917,57.6041675 1296.25,57.8999975 1296.25,58.25 C1296.25,58.6000025 1296.12917,58.8958325 1295.8875,59.1375 C1295.64583,59.3791675 1295.35,59.5 1295,59.5 C1294.65,59.5 1294.35417,59.3791675 1294.1125,59.1375 C1293.87083,58.8958325 1293.75,58.6000025 1293.75,58.25 C1293.75,57.8999975 1293.86667,57.608335 1294.1,57.375 Z M1287.85,59.875 C1288.1,59.6249975 1288.4,59.5 1288.75,59.5 C1289.1,59.5 1289.39583,59.6208325 1289.6375,59.8625 C1289.87917,60.1041675 1290,60.3999975 1290,60.75 C1290,61.1000025 1289.87917,61.3958325 1289.6375,61.6375 C1289.39583,61.8791675 1289.1,62 1288.75,62 C1288.4,62 1288.10417,61.8791675 1287.8625,61.6375 C1287.62083,61.3958325 1287.5,61.1000025 1287.5,60.75 C1287.5,60.3999975 1287.61667,60.108335 1287.85,59.875 Z M1300.35,59.875 C1300.6,59.6249975 1300.9,59.5 1301.25,59.5 C1301.6,59.5 1301.89583,59.6208325 1302.1375,59.8625 C1302.37917,60.1041675 1302.5,60.3999975 1302.5,60.75 C1302.5,61.1000025 1302.37917,61.3958325 1302.1375,61.6375 C1301.89583,61.8791675 1301.6,62 1301.25,62 C1300.9,62 1300.60417,61.8791675 1300.3625,61.6375 C1300.12083,61.3958325 1300,61.1000025 1300,60.75 C1300,60.3999975 1300.11667,60.108335 1300.35,59.875 Z M1291.475,63.475 C1292.45834,62.4916625 1293.63333,62 1295,62 C1296.36667,62 1297.54166,62.4916625 1298.525,63.475 C1299.50834,64.4583375 1300,65.6333275 1300,67 C1300,68.3666725 1299.50834,69.5416625 1298.525,70.525 C1297.54166,71.5083375 1296.36667,72 1295,72 C1293.63333,72 1292.45834,71.5083375 1291.475,70.525 C1290.49166,69.5416625 1290,68.3666725 1290,67 C1290,65.6333275 1290.49166,64.4583375 1291.475,63.475 Z M1285.35,66.125 C1285.6,65.8749975 1285.9,65.75 1286.25,65.75 C1286.6,65.75 1286.89583,65.8708325 1287.1375,66.1125 C1287.37917,66.3541675 1287.5,66.6499975 1287.5,67 C1287.5,67.3500025 1287.37917,67.6458325 1287.1375,67.8875 C1286.89583,68.1291675 1286.6,68.25 1286.25,68.25 C1285.9,68.25 1285.60417,68.1291675 1285.3625,67.8875 C1285.12083,67.6458325 1285,67.3500025 1285,67 C1285,66.6499975 1285.11667,66.358335 1285.35,66.125 Z M1302.85,66.125 C1303.1,65.8749975 1303.4,65.75 1303.75,65.75 C1304.1,65.75 1304.39583,65.8708325 1304.6375,66.1125 C1304.87917,66.3541675 1305,66.6499975 1305,67 C1305,67.3500025 1304.87917,67.6458325 1304.6375,67.8875 C1304.39583,68.1291675 1304.1,68.25 1303.75,68.25 C1303.4,68.25 1303.10417,68.1291675 1302.8625,67.8875 C1302.62083,67.6458325 1302.5,67.3500025 1302.5,67 C1302.5,66.6499975 1302.61667,66.358335 1302.85,66.125 Z M1287.85,72.375 C1288.1,72.1249975 1288.4,72 1288.75,72 C1289.1,72 1289.39583,72.1208325 1289.6375,72.3625 C1289.87917,72.6041675 1290,72.8999975 1290,73.25 C1290,73.6000025 1289.87917,73.8958325 1289.6375,74.1375 C1289.39583,74.3791675 1289.1,74.5 1288.75,74.5 C1288.4,74.5 1288.10417,74.3791675 1287.8625,74.1375 C1287.62083,73.8958325 1287.5,73.6000025 1287.5,73.25 C1287.5,72.8999975 1287.61667,72.608335 1287.85,72.375 Z M1300.35,72.375 C1300.6,72.1249975 1300.9,72 1301.25,72 C1301.6,72 1301.89583,72.1208325 1302.1375,72.3625 C1302.37917,72.6041675 1302.5,72.8999975 1302.5,73.25 C1302.5,73.6000025 1302.37917,73.8958325 1302.1375,74.1375 C1301.89583,74.3791675 1301.6,74.5 1301.25,74.5 C1300.9,74.5 1300.60417,74.3791675 1300.3625,74.1375 C1300.12083,73.8958325 1300,73.6000025 1300,73.25 C1300,72.8999975 1300.11667,72.608335 1300.35,72.375 Z M1294.1,74.875 C1294.35,74.6249988 1294.65,74.5 1295,74.5 C1295.35,74.5 1295.64583,74.620832 1295.8875,74.8625 C1296.12917,75.1041678 1296.25,75.3999982 1296.25,75.75 C1296.25,76.1000018 1296.12917,76.395832 1295.8875,76.6375 C1295.64583,76.8791679 1295.35,77 1295,77 C1294.65,77 1294.35417,76.8791679 1294.1125,76.6375 C1293.87083,76.395832 1293.75,76.1000018 1293.75,75.75 C1293.75,75.3999982 1293.86667,75.1083345 1294.1,74.875 Z" id="icon_sun"></path>
        </g>
    </g>
</svg>